<svg width="131" height="131" viewBox="0 0 131 131" fill="none" xmlns="http://www.w3.org/2000/svg">
<path d="M65.5 10.9167C35.4191 10.9167 10.9167 35.4191 10.9167 65.5C10.9167 95.5809 35.4191 120.083 65.5 120.083C95.5809 120.083 120.083 95.5809 120.083 65.5C120.083 35.4191 95.5809 10.9167 65.5 10.9167ZM65.5 21.8333C89.6811 21.8333 109.167 41.3189 109.167 65.5C109.167 89.6811 89.6811 109.167 65.5 109.167C41.3189 109.167 21.8333 89.6811 21.8333 65.5C21.8333 41.3189 41.3189 21.8333 65.5 21.8333Z" fill="white"/>
<path d="M65.5 49.125C64.0524 49.125 62.664 49.7002 61.6404 50.7238C60.6167 51.7474 60.0417 53.1357 60.0417 54.5833V92.7917C60.0417 94.2393 60.6167 95.6276 61.6404 96.6512C62.664 97.6748 64.0524 98.25 65.5 98.25C66.9476 98.25 68.336 97.6748 69.3596 96.6512C70.3833 95.6276 70.9583 94.2393 70.9583 92.7917V54.5833C70.9583 53.1357 70.3833 51.7474 69.3596 50.7238C68.336 49.7002 66.9476 49.125 65.5 49.125Z" fill="white"/>
<path d="M70.9583 38.2062C70.9583 39.6538 70.3833 41.0421 69.3596 42.0657C68.336 43.0893 66.9476 43.6645 65.5 43.6645C64.0524 43.6645 62.664 43.0893 61.6404 42.0657C60.6167 41.0421 60.0417 39.6538 60.0417 38.2062C60.0417 36.7585 60.6167 35.3701 61.6404 34.3465C62.664 33.3228 64.0524 32.7478 65.5 32.7478C66.9476 32.7478 68.336 33.3228 69.3596 34.3465C70.3833 35.3701 70.9583 36.7585 70.9583 38.2062Z" fill="white"/>
</svg>
