<svg width="109" height="109" viewBox="0 0 109 109" fill="none" xmlns="http://www.w3.org/2000/svg">
<path fill-rule="evenodd" clip-rule="evenodd" d="M98.7812 0H23.8438C18.1996 0 13.625 4.57119 13.625 10.2188V17.0312H10.2188C4.57459 17.0312 0 21.6024 0 27.25V95.375C0 102.899 6.10059 109 13.625 109H95.375C102.899 109 109 102.899 109 95.375V10.2188C109 4.57119 104.422 0 98.7812 0ZM102.188 95.375C102.188 99.1287 99.1287 102.188 95.375 102.188H13.625C9.86791 102.188 6.8125 99.1287 6.8125 95.375V27.25C6.8125 25.3698 8.3385 23.8438 10.2188 23.8438H13.625V91.9688C13.625 93.8524 15.1476 95.375 17.0312 95.375C18.9149 95.375 20.4375 93.8524 20.4375 91.9688V10.2188C20.4375 8.3385 21.9635 6.8125 23.8438 6.8125H98.7812C100.658 6.8125 102.188 8.3385 102.188 10.2188V95.375Z" fill="white"/>
<path fill-rule="evenodd" clip-rule="evenodd" d="M66.4151 44.2983H93.6651C94.6086 44.2983 95.3682 43.5353 95.3682 42.5952C95.3682 41.655 94.6086 40.892 93.6651 40.892H66.4151C65.4783 40.892 64.7119 41.655 64.7119 42.5952C64.7119 43.5353 65.4783 44.2983 66.4151 44.2983Z" fill="white"/>
<path fill-rule="evenodd" clip-rule="evenodd" d="M66.4151 34.0795H93.6651C94.6086 34.0795 95.3682 33.3165 95.3682 32.3764C95.3682 31.4363 94.6086 30.6733 93.6651 30.6733H66.4151C65.4783 30.6733 64.7119 31.4363 64.7119 32.3764C64.7119 33.3165 65.4783 34.0795 66.4151 34.0795Z" fill="white"/>
<path fill-rule="evenodd" clip-rule="evenodd" d="M66.4151 23.8608H93.6651C94.6086 23.8608 95.3682 23.0978 95.3682 22.1577C95.3682 21.2175 94.6086 20.4545 93.6651 20.4545H66.4151C65.4783 20.4545 64.7119 21.2175 64.7119 22.1577C64.7119 23.0978 65.4783 23.8608 66.4151 23.8608Z" fill="white"/>
<path fill-rule="evenodd" clip-rule="evenodd" d="M56.2031 91.9824H28.9531C28.013 91.9824 27.25 92.7488 27.25 93.6855C27.25 94.629 28.013 95.3886 28.9531 95.3886H56.2031C57.1398 95.3886 57.9062 94.629 57.9062 93.6855C57.9062 92.7488 57.1432 91.9824 56.2031 91.9824Z" fill="white"/>
<path fill-rule="evenodd" clip-rule="evenodd" d="M56.2031 81.7636H28.9531C28.013 81.7636 27.25 82.53 27.25 83.4667C27.25 84.4103 28.013 85.1699 28.9531 85.1699H56.2031C57.1398 85.1699 57.9062 84.4103 57.9062 83.4667C57.9062 82.53 57.1432 81.7636 56.2031 81.7636Z" fill="white"/>
<path fill-rule="evenodd" clip-rule="evenodd" d="M56.2031 71.5449H28.9531C28.013 71.5449 27.25 72.3113 27.25 73.248C27.25 74.1915 28.013 74.9511 28.9531 74.9511H56.2031C57.1398 74.9511 57.9062 74.1915 57.9062 73.248C57.9062 72.3113 57.1432 71.5449 56.2031 71.5449Z" fill="white"/>
<path fill-rule="evenodd" clip-rule="evenodd" d="M93.6719 91.9824H66.4219C65.4783 91.9824 64.7188 92.7488 64.7188 93.6855C64.7188 94.629 65.4783 95.3886 66.4219 95.3886H93.6719C94.6086 95.3886 95.375 94.629 95.375 93.6855C95.375 92.7488 94.6086 91.9824 93.6719 91.9824Z" fill="white"/>
<path fill-rule="evenodd" clip-rule="evenodd" d="M93.6719 81.7636H66.4219C65.4783 81.7636 64.7188 82.53 64.7188 83.4667C64.7188 84.4103 65.4783 85.1699 66.4219 85.1699H93.6719C94.6086 85.1699 95.375 84.4103 95.375 83.4667C95.375 82.53 94.6086 81.7636 93.6719 81.7636Z" fill="white"/>
<path fill-rule="evenodd" clip-rule="evenodd" d="M93.6719 71.5449H66.4219C65.4783 71.5449 64.7188 72.3113 64.7188 73.248C64.7188 74.1915 65.4783 74.9511 66.4219 74.9511H93.6719C94.6086 74.9511 95.375 74.1915 95.375 73.248C95.375 72.3113 94.6086 71.5449 93.6719 71.5449Z" fill="white"/>
<path fill-rule="evenodd" clip-rule="evenodd" d="M93.6719 51.1074H28.9531C28.013 51.1074 27.25 51.8704 27.25 52.8105C27.25 53.7506 28.013 54.5136 28.9531 54.5136H93.6719C94.6086 54.5136 95.375 53.7506 95.375 52.8105C95.375 51.8704 94.6086 51.1074 93.6719 51.1074Z" fill="white"/>
<path fill-rule="evenodd" clip-rule="evenodd" d="M93.6719 61.3261H28.9531C28.013 61.3261 27.25 62.0925 27.25 63.0293C27.25 63.9728 28.013 64.7324 28.9531 64.7324H93.6719C94.6086 64.7324 95.375 63.9728 95.375 63.0293C95.375 62.0925 94.6086 61.3261 93.6719 61.3261Z" fill="white"/>
<path fill-rule="evenodd" clip-rule="evenodd" d="M30.6562 44.2813H54.5C56.3837 44.2813 57.9062 42.7587 57.9062 40.875V17.0449C57.9062 15.1612 56.3837 13.6386 54.5 13.6386H30.6562C28.7726 13.6386 27.25 15.1612 27.25 17.0449V40.875C27.25 42.7553 28.7726 44.2813 30.6562 44.2813ZM34.0625 20.4375H51.0938V37.4688H34.0625V20.4375Z" fill="white"/>
</svg>
