<svg width="310" height="95" viewBox="0 0 310 95" fill="none" xmlns="http://www.w3.org/2000/svg">
<g filter="url(#filter0_d_102_57)">
<rect x="20" y="2.21338" width="270" height="54.7866" rx="27.3933" fill="url(#paint0_linear_102_57)"/>
</g>
<path d="M95.5 23.0463V37.0463H92.28V25.6863H85.96V37.0463H82.74V23.0463H95.5ZM103.77 37.2063C102.637 37.2063 101.617 36.9729 100.71 36.5063C99.8171 36.0263 99.1171 35.3663 98.6105 34.5263C98.1038 33.6863 97.8505 32.7329 97.8505 31.6663C97.8505 30.5996 98.1038 29.6463 98.6105 28.8063C99.1171 27.9663 99.8171 27.3129 100.71 26.8463C101.617 26.3663 102.637 26.1263 103.77 26.1263C104.904 26.1263 105.917 26.3663 106.81 26.8463C107.704 27.3129 108.404 27.9663 108.91 28.8063C109.417 29.6463 109.67 30.5996 109.67 31.6663C109.67 32.7329 109.417 33.6863 108.91 34.5263C108.404 35.3663 107.704 36.0263 106.81 36.5063C105.917 36.9729 104.904 37.2063 103.77 37.2063ZM103.77 34.6463C104.57 34.6463 105.224 34.3796 105.73 33.8463C106.25 33.2996 106.51 32.5729 106.51 31.6663C106.51 30.7596 106.25 30.0396 105.73 29.5063C105.224 28.9596 104.57 28.6863 103.77 28.6863C102.97 28.6863 102.31 28.9596 101.79 29.5063C101.27 30.0396 101.01 30.7596 101.01 31.6663C101.01 32.5729 101.27 33.2996 101.79 33.8463C102.31 34.3796 102.97 34.6463 103.77 34.6463ZM122.516 26.2863V37.0463H119.396V28.8463H114.916V37.0463H111.816V26.2863H122.516ZM131.848 26.1263C132.848 26.1263 133.754 26.3596 134.568 26.8263C135.394 27.2796 136.041 27.9263 136.508 28.7663C136.974 29.5929 137.208 30.5596 137.208 31.6663C137.208 32.7729 136.974 33.7463 136.508 34.5863C136.041 35.4129 135.394 36.0596 134.568 36.5263C133.754 36.9796 132.848 37.2063 131.848 37.2063C130.474 37.2063 129.394 36.7729 128.608 35.9063V40.9263H125.488V26.2863H128.468V27.5263C129.241 26.5929 130.368 26.1263 131.848 26.1263ZM131.308 34.6463C132.108 34.6463 132.761 34.3796 133.268 33.8463C133.788 33.2996 134.048 32.5729 134.048 31.6663C134.048 30.7596 133.788 30.0396 133.268 29.5063C132.761 28.9596 132.108 28.6863 131.308 28.6863C130.508 28.6863 129.848 28.9596 129.328 29.5063C128.821 30.0396 128.568 30.7596 128.568 31.6663C128.568 32.5729 128.821 33.2996 129.328 33.8463C129.848 34.3796 130.508 34.6463 131.308 34.6463ZM144.435 37.2063C143.301 37.2063 142.281 36.9729 141.375 36.5063C140.481 36.0263 139.781 35.3663 139.275 34.5263C138.768 33.6863 138.515 32.7329 138.515 31.6663C138.515 30.5996 138.768 29.6463 139.275 28.8063C139.781 27.9663 140.481 27.3129 141.375 26.8463C142.281 26.3663 143.301 26.1263 144.435 26.1263C145.568 26.1263 146.581 26.3663 147.475 26.8463C148.368 27.3129 149.068 27.9663 149.575 28.8063C150.081 29.6463 150.335 30.5996 150.335 31.6663C150.335 32.7329 150.081 33.6863 149.575 34.5263C149.068 35.3663 148.368 36.0263 147.475 36.5063C146.581 36.9729 145.568 37.2063 144.435 37.2063ZM144.435 34.6463C145.235 34.6463 145.888 34.3796 146.395 33.8463C146.915 33.2996 147.175 32.5729 147.175 31.6663C147.175 30.7596 146.915 30.0396 146.395 29.5063C145.888 28.9596 145.235 28.6863 144.435 28.6863C143.635 28.6863 142.975 28.9596 142.455 29.5063C141.935 30.0396 141.675 30.7596 141.675 31.6663C141.675 32.5729 141.935 33.2996 142.455 33.8463C142.975 34.3796 143.635 34.6463 144.435 34.6463ZM158.7 27.0263C159.727 27.0263 160.627 27.2396 161.4 27.6663C162.174 28.0796 162.767 28.6663 163.18 29.4263C163.607 30.1863 163.82 31.0663 163.82 32.0663C163.82 33.0929 163.567 34.0063 163.06 34.8063C162.567 35.5929 161.874 36.2063 160.98 36.6463C160.087 37.0729 159.074 37.2863 157.94 37.2863C156.06 37.2863 154.58 36.6863 153.5 35.4863C152.434 34.2729 151.9 32.4996 151.9 30.1663C151.9 28.0063 152.367 26.2863 153.3 25.0063C154.247 23.7129 155.694 22.8663 157.64 22.4663L162.76 21.4463L163.18 24.1263L158.66 25.0263C157.434 25.2663 156.52 25.6663 155.92 26.2263C155.334 26.7863 154.987 27.5796 154.88 28.6063C155.347 28.0996 155.907 27.7129 156.56 27.4463C157.214 27.1663 157.927 27.0263 158.7 27.0263ZM157.96 34.8663C158.76 34.8663 159.4 34.6063 159.88 34.0863C160.374 33.5663 160.62 32.9063 160.62 32.1063C160.62 31.2929 160.374 30.6463 159.88 30.1663C159.4 29.6863 158.76 29.4463 157.96 29.4463C157.147 29.4463 156.494 29.6863 156 30.1663C155.507 30.6463 155.26 31.2929 155.26 32.1063C155.26 32.9196 155.514 33.5863 156.02 34.1063C156.527 34.6129 157.174 34.8663 157.96 34.8663ZM170.978 37.2063C169.844 37.2063 168.824 36.9729 167.918 36.5063C167.024 36.0263 166.324 35.3663 165.818 34.5263C165.311 33.6863 165.058 32.7329 165.058 31.6663C165.058 30.5996 165.311 29.6463 165.818 28.8063C166.324 27.9663 167.024 27.3129 167.918 26.8463C168.824 26.3663 169.844 26.1263 170.978 26.1263C172.111 26.1263 173.124 26.3663 174.018 26.8463C174.911 27.3129 175.611 27.9663 176.118 28.8063C176.624 29.6463 176.878 30.5996 176.878 31.6663C176.878 32.7329 176.624 33.6863 176.118 34.5263C175.611 35.3663 174.911 36.0263 174.018 36.5063C173.124 36.9729 172.111 37.2063 170.978 37.2063ZM170.978 34.6463C171.778 34.6463 172.431 34.3796 172.938 33.8463C173.458 33.2996 173.718 32.5729 173.718 31.6663C173.718 30.7596 173.458 30.0396 172.938 29.5063C172.431 28.9596 171.778 28.6863 170.978 28.6863C170.178 28.6863 169.518 28.9596 168.998 29.5063C168.478 30.0396 168.218 30.7596 168.218 31.6663C168.218 32.5729 168.478 33.2996 168.998 33.8463C169.518 34.3796 170.178 34.6463 170.978 34.6463ZM187.243 31.4263C188.51 31.8529 189.143 32.7063 189.143 33.9863C189.143 34.9596 188.777 35.7129 188.043 36.2463C187.31 36.7796 186.217 37.0463 184.763 37.0463H179.023V26.2863H184.523C185.87 26.2863 186.923 26.5329 187.683 27.0263C188.443 27.5063 188.823 28.1863 188.823 29.0663C188.823 29.5996 188.683 30.0729 188.403 30.4863C188.137 30.8863 187.75 31.1996 187.243 31.4263ZM181.883 30.7063H184.243C185.337 30.7063 185.883 30.3196 185.883 29.5463C185.883 28.7863 185.337 28.4063 184.243 28.4063H181.883V30.7063ZM184.503 34.9263C185.65 34.9263 186.223 34.5329 186.223 33.7463C186.223 33.3329 186.09 33.0329 185.823 32.8463C185.557 32.6463 185.137 32.5463 184.563 32.5463H181.883V34.9263H184.503ZM195.645 26.1263C197.312 26.1263 198.592 26.5263 199.485 27.3263C200.378 28.1129 200.825 29.3063 200.825 30.9063V37.0463H197.905V35.7063C197.318 36.7063 196.225 37.2063 194.625 37.2063C193.798 37.2063 193.078 37.0663 192.465 36.7863C191.865 36.5063 191.405 36.1196 191.085 35.6263C190.765 35.1329 190.605 34.5729 190.605 33.9463C190.605 32.9463 190.978 32.1596 191.725 31.5863C192.485 31.0129 193.652 30.7263 195.225 30.7263H197.705C197.705 30.0463 197.498 29.5263 197.085 29.1663C196.672 28.7929 196.052 28.6063 195.225 28.6063C194.652 28.6063 194.085 28.6996 193.525 28.8863C192.978 29.0596 192.512 29.2996 192.125 29.6063L191.005 27.4263C191.592 27.0129 192.292 26.6929 193.105 26.4663C193.932 26.2396 194.778 26.1263 195.645 26.1263ZM195.405 35.1063C195.938 35.1063 196.412 34.9863 196.825 34.7463C197.238 34.4929 197.532 34.1263 197.705 33.6463V32.5463H195.565C194.285 32.5463 193.645 32.9663 193.645 33.8063C193.645 34.2063 193.798 34.5263 194.105 34.7663C194.425 34.9929 194.858 35.1063 195.405 35.1063ZM212.575 28.8463H208.935V37.0463H205.835V28.8463H202.195V26.2863H212.575V28.8463ZM220.058 29.7263C221.458 29.7396 222.532 30.0596 223.278 30.6863C224.025 31.2996 224.398 32.1729 224.398 33.3063C224.398 34.4929 223.978 35.4196 223.138 36.0863C222.312 36.7396 221.145 37.0663 219.638 37.0663L214.238 37.0463V26.2863H217.338V29.7263H220.058ZM219.358 34.8463C219.958 34.8596 220.418 34.7329 220.738 34.4663C221.058 34.1996 221.218 33.7996 221.218 33.2663C221.218 32.7463 221.058 32.3663 220.738 32.1263C220.432 31.8863 219.972 31.7596 219.358 31.7463L217.338 31.7263V34.8463H219.358Z" fill="black"/>
<defs>
<filter id="filter0_d_102_57" x="0" y="0.213379" width="310" height="94.7866" filterUnits="userSpaceOnUse" color-interpolation-filters="sRGB">
<feFlood flood-opacity="0" result="BackgroundImageFix"/>
<feColorMatrix in="SourceAlpha" type="matrix" values="0 0 0 0 0 0 0 0 0 0 0 0 0 0 0 0 0 0 127 0" result="hardAlpha"/>
<feOffset dy="18"/>
<feGaussianBlur stdDeviation="10"/>
<feComposite in2="hardAlpha" operator="out"/>
<feColorMatrix type="matrix" values="0 0 0 0 0 0 0 0 0 0 0 0 0 0 0 0 0 0 0.25 0"/>
<feBlend mode="normal" in2="BackgroundImageFix" result="effect1_dropShadow_102_57"/>
<feBlend mode="normal" in="SourceGraphic" in2="effect1_dropShadow_102_57" result="shape"/>
</filter>
<linearGradient id="paint0_linear_102_57" x1="20" y1="2.21338" x2="284.863" y2="75.5536" gradientUnits="userSpaceOnUse">
<stop stop-color="#45FEFE"/>
<stop offset="1" stop-color="#EF45FE"/>
</linearGradient>
</defs>
</svg>
