<svg width="25" height="25" viewBox="0 0 25 25" fill="none" xmlns="http://www.w3.org/2000/svg">
<path d="M5.52081 19.4792C5.72915 19.6875 5.93748 19.7917 6.24998 19.7917C6.56248 19.7917 6.77081 19.6875 6.97915 19.4792L12.5 13.9583L18.0208 19.4792C18.2291 19.6875 18.5416 19.7917 18.75 19.7917C18.9583 19.7917 19.2708 19.6875 19.4791 19.4792C19.8958 19.0625 19.8958 18.4375 19.4791 18.0208L13.9583 12.5L19.4791 6.97918C19.8958 6.56251 19.8958 5.93751 19.4791 5.52084C19.0625 5.10418 18.4375 5.10418 18.0208 5.52084L12.5 11.0417L6.97915 5.52084C6.56248 5.10418 5.93748 5.10418 5.52081 5.52084C5.10415 5.93751 5.10415 6.56251 5.52081 6.97918L11.0416 12.5L5.52081 18.0208C5.10415 18.4375 5.10415 19.0625 5.52081 19.4792Z" fill="white"/>
</svg>
