<svg width="23" height="23" viewBox="0 0 23 23" fill="none" xmlns="http://www.w3.org/2000/svg">
<path d="M11.4065 13.6504C12.5425 13.6504 13.4634 12.7295 13.4634 11.5935C13.4634 10.4575 12.5425 9.53662 11.4065 9.53662C10.2705 9.53662 9.34961 10.4575 9.34961 11.5935C9.34961 12.7295 10.2705 13.6504 11.4065 13.6504Z" fill="white"/>
<path d="M13.9774 6.54468H8.83521C8.08726 6.54468 7.43279 6.77841 7.01207 7.19914C6.59134 7.61987 6.3576 8.27433 6.3576 9.02229V14.1645C6.3576 14.9124 6.59134 15.5669 7.05881 16.0344C7.52629 16.4551 8.134 16.6888 8.88196 16.6888H13.9774C14.7254 16.6888 15.3798 16.4551 15.8006 16.0344C16.268 15.6137 16.5018 14.9592 16.5018 14.2112V9.06903C16.5018 8.32108 16.268 7.71336 15.8473 7.24589C15.3798 6.77841 14.7721 6.54468 13.9774 6.54468ZM11.4063 14.7722C9.62992 14.7722 8.2275 13.323 8.2275 11.5934C8.2275 9.81699 9.67667 8.41457 11.4063 8.41457C13.136 8.41457 14.6319 9.81699 14.6319 11.5934C14.6319 13.3698 13.1827 14.7722 11.4063 14.7722ZM14.7254 9.02229C14.3047 9.02229 13.9774 8.69505 13.9774 8.27433C13.9774 7.8536 14.3047 7.52637 14.7254 7.52637C15.1461 7.52637 15.4733 7.8536 15.4733 8.27433C15.4733 8.69505 15.1461 9.02229 14.7254 9.02229Z" fill="white"/>
<path d="M11.4998 0C5.14221 0 0 5.1422 0 11.4998C0 17.8575 5.14221 22.9997 11.4998 22.9997C17.8575 22.9997 22.9997 17.8575 22.9997 11.4998C23.0464 5.1422 17.8575 0 11.4998 0ZM17.6237 14.2112C17.6237 15.2864 17.2498 16.2213 16.5953 16.8758C15.9408 17.5302 15.0059 17.8575 13.9775 17.8575H8.88199C7.85355 17.8575 6.91861 17.5302 6.26414 16.8758C5.56293 16.2213 5.2357 15.2864 5.2357 14.2112V9.06898C5.2357 6.9186 6.68487 5.42269 8.88199 5.42269H14.0242C15.0994 5.42269 15.9876 5.79667 16.642 6.45113C17.2965 7.10559 17.6237 7.99379 17.6237 9.06898V14.2112V14.2112Z" fill="white"/>
</svg>
