<svg width="36" height="36" viewBox="0 0 36 36" fill="none" xmlns="http://www.w3.org/2000/svg">
<path d="M34.5046 24.5872C33.8192 19.7411 30.1639 16.2242 25.8093 16.2242C25.3108 16.2242 24.9231 16.5773 24.5077 16.9442C24.1823 17.2419 23.7739 17.6088 23.49 17.6088H19.0504C20.1282 14.5473 19.0629 11.0743 16.321 9.17468L16.2121 9.09963C15.2596 8.43944 14.8458 7.20897 15.2088 6.09648C15.7835 4.33731 15.0899 2.42096 13.5227 1.43658L12.7858 2.60891C13.8148 3.25491 14.2698 4.51242 13.8898 5.67731C13.3408 7.35636 13.9723 9.23147 15.4245 10.2382L15.5334 10.3132C17.8933 11.9486 18.7228 15.0234 17.5625 17.6088H12.51C12.2261 17.6088 11.8246 17.2419 11.4992 16.9511C11.0839 16.5773 10.6962 16.2242 10.1908 16.2242C5.83615 16.2242 2.18079 19.7411 1.49537 24.5872C1.10768 27.3565 1.75156 30.0495 3.26079 31.9742C4.41693 33.4488 6.0023 34.3557 7.74 34.5288C10.4746 34.7988 13.1539 33.2965 14.8777 30.5965H21.1223C22.7146 33.0888 25.1169 34.5634 27.6231 34.5634C27.8377 34.5634 28.0523 34.5495 28.26 34.5288C29.9977 34.3557 31.5831 33.4488 32.7392 31.9742C34.2485 30.0495 34.8923 27.3565 34.5046 24.5872ZM13.1542 26.0845H10.385V28.8595H9.00039V26.0845H6.23115V24.6999H9.00039V21.9246H10.385V24.6999H13.1542V26.0845ZM22.8465 26.0845H20.7696V24.6999H22.8465V26.0845ZM26.3081 30.2465H24.9235V28.1658H26.3081V30.2465ZM26.3081 22.6182H24.9235V20.5376H26.3081V22.6182ZM30.4619 26.0845H28.385V24.6999H30.4619V26.0845Z" fill="white"/>
</svg>
