<svg width="186" height="50" viewBox="0 0 186 50" fill="none" xmlns="http://www.w3.org/2000/svg">
<path d="M34.5046 31.5872C33.8192 26.7411 30.1639 23.2242 25.8093 23.2242C25.3108 23.2242 24.9231 23.5773 24.5077 23.9442C24.1823 24.2419 23.7739 24.6088 23.49 24.6088H19.0504C20.1282 21.5473 19.0629 18.0743 16.321 16.1747L16.2121 16.0996C15.2596 15.4394 14.8458 14.209 15.2088 13.0965C15.7835 11.3373 15.0899 9.42096 13.5227 8.43658L12.7858 9.60891C13.8148 10.2549 14.2698 11.5124 13.8898 12.6773C13.3408 14.3564 13.9723 16.2315 15.4245 17.2382L15.5334 17.3132C17.8933 18.9486 18.7228 22.0234 17.5625 24.6088H12.51C12.2261 24.6088 11.8246 24.2419 11.4992 23.9511C11.0839 23.5773 10.6962 23.2242 10.1908 23.2242C5.83615 23.2242 2.18079 26.7411 1.49537 31.5872C1.10768 34.3565 1.75156 37.0495 3.26079 38.9742C4.41693 40.4488 6.0023 41.3557 7.74 41.5288C10.4746 41.7988 13.1539 40.2965 14.8777 37.5965H21.1223C22.7146 40.0888 25.1169 41.5634 27.6231 41.5634C27.8377 41.5634 28.0523 41.5495 28.26 41.5288C29.9977 41.3557 31.5831 40.4488 32.7392 38.9742C34.2485 37.0495 34.8923 34.3565 34.5046 31.5872ZM13.1542 33.0845H10.385V35.8595H9.00039V33.0845H6.23115V31.6999H9.00039V28.9246H10.385V31.6999H13.1542V33.0845ZM22.8465 33.0845H20.7696V31.6999H22.8465V33.0845ZM26.3081 37.2465H24.9235V35.1658H26.3081V37.2465ZM26.3081 29.6182H24.9235V27.5376H26.3081V29.6182ZM30.4619 33.0845H28.385V31.6999H30.4619V33.0845Z" fill="white"/>
<path d="M43.844 31.144C43.088 31.144 42.386 30.988 41.738 30.676C41.09 30.352 40.568 29.902 40.172 29.326L41.216 28.102C41.912 29.098 42.788 29.596 43.844 29.596C44.552 29.596 45.086 29.38 45.446 28.948C45.818 28.516 46.004 27.88 46.004 27.04V19.966H41.45V18.4H47.786V26.95C47.786 28.342 47.45 29.392 46.778 30.1C46.118 30.796 45.14 31.144 43.844 31.144ZM60.0925 21.46V31H58.4545V29.56C58.1065 30.052 57.6445 30.436 57.0685 30.712C56.5045 30.976 55.8865 31.108 55.2145 31.108C53.9425 31.108 52.9405 30.76 52.2085 30.064C51.4765 29.356 51.1105 28.318 51.1105 26.95V21.46H52.8385V26.752C52.8385 27.676 53.0605 28.378 53.5045 28.858C53.9485 29.326 54.5845 29.56 55.4125 29.56C56.3245 29.56 57.0445 29.284 57.5725 28.732C58.1005 28.18 58.3645 27.4 58.3645 26.392V21.46H60.0925ZM72.0041 26.284C72.0041 26.416 71.9921 26.59 71.9681 26.806H64.2281C64.3361 27.646 64.7021 28.324 65.3261 28.84C65.9621 29.344 66.7481 29.596 67.6841 29.596C68.8241 29.596 69.7421 29.212 70.4381 28.444L71.3921 29.56C70.9601 30.064 70.4201 30.448 69.7721 30.712C69.1361 30.976 68.4221 31.108 67.6301 31.108C66.6221 31.108 65.7281 30.904 64.9481 30.496C64.1681 30.076 63.5621 29.494 63.1301 28.75C62.7101 28.006 62.5001 27.166 62.5001 26.23C62.5001 25.306 62.7041 24.472 63.1121 23.728C63.5321 22.984 64.1021 22.408 64.8221 22C65.5541 21.58 66.3761 21.37 67.2881 21.37C68.2001 21.37 69.0101 21.58 69.7181 22C70.4381 22.408 70.9961 22.984 71.3921 23.728C71.8001 24.472 72.0041 25.324 72.0041 26.284ZM67.2881 22.828C66.4601 22.828 65.7641 23.08 65.2001 23.584C64.6481 24.088 64.3241 24.748 64.2281 25.564H70.3481C70.2521 24.76 69.9221 24.106 69.3581 23.602C68.8061 23.086 68.1161 22.828 67.2881 22.828ZM83.5296 21.46V29.704C83.5296 31.372 83.1156 32.602 82.2876 33.394C81.4596 34.198 80.2236 34.6 78.5796 34.6C77.6796 34.6 76.8216 34.474 76.0056 34.222C75.1896 33.982 74.5296 33.634 74.0256 33.178L74.8536 31.846C75.2976 32.23 75.8436 32.53 76.4916 32.746C77.1516 32.974 77.8296 33.088 78.5256 33.088C79.6416 33.088 80.4636 32.824 80.9916 32.296C81.5316 31.768 81.8016 30.964 81.8016 29.884V29.128C81.3936 29.62 80.8896 29.992 80.2896 30.244C79.7016 30.484 79.0596 30.604 78.3636 30.604C77.4516 30.604 76.6236 30.412 75.8796 30.028C75.1476 29.632 74.5716 29.086 74.1516 28.39C73.7316 27.682 73.5216 26.878 73.5216 25.978C73.5216 25.078 73.7316 24.28 74.1516 23.584C74.5716 22.876 75.1476 22.33 75.8796 21.946C76.6236 21.562 77.4516 21.37 78.3636 21.37C79.0836 21.37 79.7496 21.502 80.3616 21.766C80.9856 22.03 81.4956 22.42 81.8916 22.936V21.46H83.5296ZM78.5616 29.092C79.1856 29.092 79.7436 28.96 80.2356 28.696C80.7396 28.432 81.1296 28.066 81.4056 27.598C81.6936 27.118 81.8376 26.578 81.8376 25.978C81.8376 25.054 81.5316 24.31 80.9196 23.746C80.3076 23.17 79.5216 22.882 78.5616 22.882C77.5896 22.882 76.7976 23.17 76.1856 23.746C75.5736 24.31 75.2676 25.054 75.2676 25.978C75.2676 26.578 75.4056 27.118 75.6816 27.598C75.9696 28.066 76.3596 28.432 76.8516 28.696C77.3556 28.96 77.9256 29.092 78.5616 29.092ZM90.9174 31.108C89.9694 31.108 89.1174 30.898 88.3614 30.478C87.6054 30.058 87.0114 29.482 86.5794 28.75C86.1594 28.006 85.9494 27.166 85.9494 26.23C85.9494 25.294 86.1594 24.46 86.5794 23.728C87.0114 22.984 87.6054 22.408 88.3614 22C89.1174 21.58 89.9694 21.37 90.9174 21.37C91.8654 21.37 92.7114 21.58 93.4554 22C94.2114 22.408 94.7994 22.984 95.2194 23.728C95.6514 24.46 95.8674 25.294 95.8674 26.23C95.8674 27.166 95.6514 28.006 95.2194 28.75C94.7994 29.482 94.2114 30.058 93.4554 30.478C92.7114 30.898 91.8654 31.108 90.9174 31.108ZM90.9174 29.596C91.5294 29.596 92.0754 29.458 92.5554 29.182C93.0474 28.894 93.4314 28.498 93.7074 27.994C93.9834 27.478 94.1214 26.89 94.1214 26.23C94.1214 25.57 93.9834 24.988 93.7074 24.484C93.4314 23.968 93.0474 23.572 92.5554 23.296C92.0754 23.02 91.5294 22.882 90.9174 22.882C90.3054 22.882 89.7534 23.02 89.2614 23.296C88.7814 23.572 88.3974 23.968 88.1094 24.484C87.8334 24.988 87.6954 25.57 87.6954 26.23C87.6954 26.89 87.8334 27.478 88.1094 27.994C88.3974 28.498 88.7814 28.894 89.2614 29.182C89.7534 29.458 90.3054 29.596 90.9174 29.596ZM100.993 31.108C100.213 31.108 99.4631 31.006 98.7431 30.802C98.0231 30.586 97.4591 30.316 97.0511 29.992L97.7711 28.624C98.1911 28.924 98.7011 29.164 99.3011 29.344C99.9011 29.524 100.507 29.614 101.119 29.614C102.631 29.614 103.387 29.182 103.387 28.318C103.387 28.03 103.285 27.802 103.081 27.634C102.877 27.466 102.619 27.346 102.307 27.274C102.007 27.19 101.575 27.1 101.011 27.004C100.243 26.884 99.6131 26.746 99.1211 26.59C98.6411 26.434 98.2271 26.17 97.8791 25.798C97.5311 25.426 97.3571 24.904 97.3571 24.232C97.3571 23.368 97.7171 22.678 98.4371 22.162C99.1571 21.634 100.123 21.37 101.335 21.37C101.971 21.37 102.607 21.448 103.243 21.604C103.879 21.76 104.401 21.97 104.809 22.234L104.071 23.602C103.291 23.098 102.373 22.846 101.317 22.846C100.585 22.846 100.027 22.966 99.6431 23.206C99.2591 23.446 99.0671 23.764 99.0671 24.16C99.0671 24.472 99.1751 24.718 99.3911 24.898C99.6071 25.078 99.8711 25.21 100.183 25.294C100.507 25.378 100.957 25.474 101.533 25.582C102.301 25.714 102.919 25.858 103.387 26.014C103.867 26.158 104.275 26.41 104.611 26.77C104.947 27.13 105.115 27.634 105.115 28.282C105.115 29.146 104.743 29.836 103.999 30.352C103.267 30.856 102.265 31.108 100.993 31.108ZM116.257 24.628H117.985V29.542C117.361 30.058 116.635 30.454 115.807 30.73C114.979 31.006 114.115 31.144 113.215 31.144C111.943 31.144 110.797 30.868 109.777 30.316C108.757 29.752 107.953 28.984 107.365 28.012C106.789 27.028 106.501 25.924 106.501 24.7C106.501 23.476 106.789 22.372 107.365 21.388C107.953 20.404 108.757 19.636 109.777 19.084C110.809 18.532 111.967 18.256 113.251 18.256C114.259 18.256 115.171 18.424 115.987 18.76C116.815 19.084 117.517 19.564 118.093 20.2L116.977 21.316C115.969 20.344 114.751 19.858 113.323 19.858C112.363 19.858 111.499 20.068 110.731 20.488C109.975 20.896 109.381 21.472 108.949 22.216C108.517 22.948 108.301 23.776 108.301 24.7C108.301 25.612 108.517 26.44 108.949 27.184C109.381 27.916 109.975 28.492 110.731 28.912C111.499 29.332 112.357 29.542 113.305 29.542C114.433 29.542 115.417 29.272 116.257 28.732V24.628ZM129.801 26.284C129.801 26.416 129.789 26.59 129.765 26.806H122.025C122.133 27.646 122.499 28.324 123.123 28.84C123.759 29.344 124.545 29.596 125.481 29.596C126.621 29.596 127.539 29.212 128.235 28.444L129.189 29.56C128.757 30.064 128.217 30.448 127.569 30.712C126.933 30.976 126.219 31.108 125.427 31.108C124.419 31.108 123.525 30.904 122.745 30.496C121.965 30.076 121.359 29.494 120.927 28.75C120.507 28.006 120.297 27.166 120.297 26.23C120.297 25.306 120.501 24.472 120.909 23.728C121.329 22.984 121.899 22.408 122.619 22C123.351 21.58 124.173 21.37 125.085 21.37C125.997 21.37 126.807 21.58 127.515 22C128.235 22.408 128.793 22.984 129.189 23.728C129.597 24.472 129.801 25.324 129.801 26.284ZM125.085 22.828C124.257 22.828 123.561 23.08 122.997 23.584C122.445 24.088 122.121 24.748 122.025 25.564H128.145C128.049 24.76 127.719 24.106 127.155 23.602C126.603 23.086 125.913 22.828 125.085 22.828ZM137.295 21.37C138.507 21.37 139.467 21.724 140.175 22.432C140.895 23.128 141.255 24.154 141.255 25.51V31H139.527V25.708C139.527 24.784 139.305 24.088 138.861 23.62C138.417 23.152 137.781 22.918 136.953 22.918C136.017 22.918 135.279 23.194 134.739 23.746C134.199 24.286 133.929 25.066 133.929 26.086V31H132.201V21.46H133.857V22.9C134.205 22.408 134.673 22.03 135.261 21.766C135.861 21.502 136.539 21.37 137.295 21.37ZM144.452 21.46H146.18V31H144.452V21.46ZM145.316 19.624C144.98 19.624 144.698 19.516 144.47 19.3C144.254 19.084 144.146 18.82 144.146 18.508C144.146 18.196 144.254 17.932 144.47 17.716C144.698 17.488 144.98 17.374 145.316 17.374C145.652 17.374 145.928 17.482 146.144 17.698C146.372 17.902 146.486 18.16 146.486 18.472C146.486 18.796 146.372 19.072 146.144 19.3C145.928 19.516 145.652 19.624 145.316 19.624ZM152.954 21.37C154.274 21.37 155.282 21.694 155.978 22.342C156.686 22.99 157.04 23.956 157.04 25.24V31H155.402V29.74C155.114 30.184 154.7 30.526 154.16 30.766C153.632 30.994 153.002 31.108 152.27 31.108C151.202 31.108 150.344 30.85 149.696 30.334C149.06 29.818 148.742 29.14 148.742 28.3C148.742 27.46 149.048 26.788 149.66 26.284C150.272 25.768 151.244 25.51 152.576 25.51H155.312V25.168C155.312 24.424 155.096 23.854 154.664 23.458C154.232 23.062 153.596 22.864 152.756 22.864C152.192 22.864 151.64 22.96 151.1 23.152C150.56 23.332 150.104 23.578 149.732 23.89L149.012 22.594C149.504 22.198 150.092 21.898 150.776 21.694C151.46 21.478 152.186 21.37 152.954 21.37ZM152.558 29.776C153.218 29.776 153.788 29.632 154.268 29.344C154.748 29.044 155.096 28.624 155.312 28.084V26.752H152.648C151.184 26.752 150.452 27.244 150.452 28.228C150.452 28.708 150.638 29.086 151.01 29.362C151.382 29.638 151.898 29.776 152.558 29.776ZM160.238 17.644H161.966V31H160.238V17.644ZM173.887 26.284C173.887 26.416 173.875 26.59 173.851 26.806H166.111C166.219 27.646 166.585 28.324 167.209 28.84C167.845 29.344 168.631 29.596 169.567 29.596C170.707 29.596 171.625 29.212 172.321 28.444L173.275 29.56C172.843 30.064 172.303 30.448 171.655 30.712C171.019 30.976 170.305 31.108 169.513 31.108C168.505 31.108 167.611 30.904 166.831 30.496C166.051 30.076 165.445 29.494 165.013 28.75C164.593 28.006 164.383 27.166 164.383 26.23C164.383 25.306 164.587 24.472 164.995 23.728C165.415 22.984 165.985 22.408 166.705 22C167.437 21.58 168.259 21.37 169.171 21.37C170.083 21.37 170.893 21.58 171.601 22C172.321 22.408 172.879 22.984 173.275 23.728C173.683 24.472 173.887 25.324 173.887 26.284ZM169.171 22.828C168.343 22.828 167.647 23.08 167.083 23.584C166.531 24.088 166.207 24.748 166.111 25.564H172.231C172.135 24.76 171.805 24.106 171.241 23.602C170.689 23.086 169.999 22.828 169.171 22.828ZM179.022 31.108C178.242 31.108 177.492 31.006 176.772 30.802C176.052 30.586 175.488 30.316 175.08 29.992L175.8 28.624C176.22 28.924 176.73 29.164 177.33 29.344C177.93 29.524 178.536 29.614 179.148 29.614C180.66 29.614 181.416 29.182 181.416 28.318C181.416 28.03 181.314 27.802 181.11 27.634C180.906 27.466 180.648 27.346 180.336 27.274C180.036 27.19 179.604 27.1 179.04 27.004C178.272 26.884 177.642 26.746 177.15 26.59C176.67 26.434 176.256 26.17 175.908 25.798C175.56 25.426 175.386 24.904 175.386 24.232C175.386 23.368 175.746 22.678 176.466 22.162C177.186 21.634 178.152 21.37 179.364 21.37C180 21.37 180.636 21.448 181.272 21.604C181.908 21.76 182.43 21.97 182.838 22.234L182.1 23.602C181.32 23.098 180.402 22.846 179.346 22.846C178.614 22.846 178.056 22.966 177.672 23.206C177.288 23.446 177.096 23.764 177.096 24.16C177.096 24.472 177.204 24.718 177.42 24.898C177.636 25.078 177.9 25.21 178.212 25.294C178.536 25.378 178.986 25.474 179.562 25.582C180.33 25.714 180.948 25.858 181.416 26.014C181.896 26.158 182.304 26.41 182.64 26.77C182.976 27.13 183.144 27.634 183.144 28.282C183.144 29.146 182.772 29.836 182.028 30.352C181.296 30.856 180.294 31.108 179.022 31.108Z" fill="white"/>
</svg>
