<svg width="23" height="23" viewBox="0 0 23 23" fill="none" xmlns="http://www.w3.org/2000/svg">
<path d="M11.5 0C5.14872 0 0 5.14872 0 11.5C0 17.8513 5.14872 23 11.5 23C17.8513 23 23 17.8513 23 11.5C23 5.14872 17.8513 0 11.5 0ZM17.6257 15.4037H16.1664C16.0083 15.4039 15.8523 15.3684 15.7098 15.3C15.5674 15.2316 15.4422 15.1319 15.3435 15.0084C14.9059 14.459 14.0437 13.4847 13.1385 13.0663C13.0861 13.0417 13.0283 13.0308 12.9706 13.0345C12.9128 13.0382 12.8569 13.0564 12.808 13.0874C12.7591 13.1184 12.7189 13.1613 12.6909 13.212C12.663 13.2627 12.6483 13.3196 12.6482 13.3775V14.8208C12.6482 14.8973 12.6331 14.9731 12.6038 15.0438C12.5746 15.1146 12.5316 15.1788 12.4775 15.233C12.4234 15.2871 12.3591 15.33 12.2884 15.3593C12.2177 15.3886 12.1419 15.4037 12.0653 15.4037H11.3906C10.5131 15.4037 8.62338 14.8695 7.11765 12.6761C5.83468 10.8073 5.26278 9.35907 4.92928 8.18481C4.90989 8.11599 4.90671 8.04361 4.92 7.97335C4.93329 7.90309 4.96268 7.83687 5.00587 7.77989C5.04905 7.7229 5.10486 7.6767 5.1689 7.6449C5.23295 7.61311 5.30349 7.59659 5.37499 7.59665H6.85122C6.99849 7.59652 7.14188 7.64394 7.26005 7.73184C7.37821 7.81975 7.46485 7.94345 7.50707 8.08454C7.78159 9.0027 8.49262 10.9834 9.74944 11.9697C9.78776 11.9999 9.83381 12.0187 9.88232 12.0239C9.93083 12.0292 9.97984 12.0207 10.0238 11.9995C10.0677 11.9782 10.1047 11.945 10.1306 11.9036C10.1566 11.8623 10.1704 11.8145 10.1704 11.7657V9.45376C10.1704 8.99686 9.97239 8.53974 9.66332 8.18247C9.61879 8.13124 9.58993 8.06827 9.58019 8.00108C9.57046 7.93389 9.58025 7.86532 9.6084 7.80355C9.63656 7.74177 9.68189 7.6894 9.73899 7.65268C9.79608 7.61595 9.86254 7.59642 9.93043 7.59642H12.2064C12.3236 7.59642 12.436 7.64298 12.5189 7.72585C12.6018 7.80872 12.6484 7.92112 12.6484 8.03832V11.1525C12.6484 11.1976 12.6608 11.2418 12.6843 11.2803C12.7077 11.3188 12.7413 11.3501 12.7814 11.3708C12.8214 11.3915 12.8664 11.4007 12.9114 11.3975C12.9564 11.3943 12.9996 11.3788 13.0363 11.3527C13.4541 11.0553 13.8119 10.616 14.141 10.1222C14.5552 9.50098 15.0606 8.47415 15.3141 7.94124C15.3632 7.83801 15.4406 7.7508 15.5372 7.68975C15.6338 7.62869 15.7458 7.59628 15.8601 7.59629H17.4701C17.5373 7.59626 17.6035 7.6134 17.6622 7.64609C17.721 7.67877 17.7704 7.72592 17.8058 7.78306C17.8412 7.8402 17.8615 7.90544 17.8646 7.9726C17.8678 8.03975 17.8537 8.1066 17.8238 8.1668C17.4175 8.98168 16.6262 10.4766 15.8816 11.3536C15.775 11.4798 15.7228 11.643 15.7365 11.8076C15.7502 11.9722 15.8286 12.1246 15.9545 12.2314C16.4399 12.6461 17.1976 13.4129 18.0146 14.6899C18.0596 14.7598 18.085 14.8406 18.0881 14.9237C18.0912 15.0068 18.0718 15.0892 18.032 15.1623C17.9922 15.2353 17.9335 15.2963 17.862 15.3388C17.7905 15.3812 17.7089 15.4037 17.6257 15.4037V15.4037Z" fill="white"/>
</svg>
